<svg width="255" height="40" fill="none" xmlns="http://www.w3.org/2000/svg"><path d="M24.52 9.53a12.574 12.574 0 0 0-10.22.266 12.619 12.619 0 0 0-3.475 2.474l-8.592 8.635a7.014 7.014 0 0 0-2.04 4.947c0 3.837 3.142 6.994 6.96 6.994h.002c.084 0 .168 0 .252-.005a5.264 5.264 0 0 1-1.804-8.73l7.186-7.218.762-.77.258-.259.292-.295c.18-.177.365-.347.556-.509a16.236 16.236 0 0 1 10.724-4.033c.642 0 1.284.037 1.922.112a12.462 12.462 0 0 0-2.784-1.61zm29.12 3.41c-1.438-3.554-5.53-5.293-9.069-3.852l-.089.037a6.943 6.943 0 0 0-2.216 1.499l-5.257 5.284-.759.76c-.023.022-.046.045-.07.066a2.321 2.321 0 0 1-3.21-.066l-4.034-4.053a15.145 15.145 0 0 0-9.072.622 7.857 7.857 0 0 1 5.448 2.331l6.974 7.008a3.295 3.295 0 0 0 4.648 0l8.61-8.652c.083-.084.173-.161.268-.232a5.21 5.21 0 0 1 3.398-1.262 5.235 5.235 0 0 1 4.925 3.501 7.004 7.004 0 0 0-.497-2.991h.002zm-4.426.658c-.236 0-.47.02-.702.061a2.337 2.337 0 0 1 .314 3.56l-8.555 8.6-.055.055a7.954 7.954 0 0 1-.467.434 16.246 16.246 0 0 1-10.867 4.156c-.597 0-1.195-.032-1.789-.097a12.565 12.565 0 0 0 12.88 1.295 12.467 12.467 0 0 0 3.52-2.49l8.349-8.386.265-.267c.094-.094.184-.19.272-.289a4.091 4.091 0 0 0 .892-2.55c0-2.238-1.833-4.08-4.059-4.08h-.002l.004-.002zM34.527 28.203a7.887 7.887 0 0 1-5.524-2.331l-6.941-6.975a3.334 3.334 0 0 0-2.35-1 3.26 3.26 0 0 0-2.329.968l-2.047 2.06-.862.865-2.002 2.013-.83.835-1.372 1.381-1.226 1.232-.245.248a2.315 2.315 0 0 1-3.575-.359 4.1 4.1 0 0 0-.073.77c0 2.238 1.832 4.08 4.059 4.082a4.045 4.045 0 0 0 2.762-1.091l.053-.052.053-.052.07-.07 2.262-2.274 3.675-3.693a2.322 2.322 0 0 1 3.262.018l4.11 4.13c3.023.7 6.19.454 9.07-.705zm39.986-16.555v8.91l-9.146-8.985h-1.68v18.251h4.78V20.89l9.118 8.96h1.658V11.648h-4.73zM89.24 29.86V11.682h-4.583v4.05h.008v10.05h-.008v4.076h4.583zm13.575-18.433h-1.988l-8.14 17.735-.311.675h4.83l1.06-2.285h7.132l1.06 2.285h4.831l-.309-.675-8.165-17.735zm-3.048 12.152l2.041-4.777 2.092 4.777h-4.133zm29.91-4.104h-8.55v4.024h3.845c-.827 1.74-2.016 2.234-3.876 2.234-2.739 0-4.496-1.974-4.496-4.986 0-2.779 1.576-5.062 4.496-5.062 1.834 0 3.023.623 3.772 2.181h4.548c-.879-4.518-4.677-6.413-8.32-6.44-4.599 0-9.25 3.117-9.279 9.326.026 6.205 4.676 9.295 9.279 9.295 3.333 0 6.769-1.454 8.062-5.245.619-1.769.619-3.51.519-5.327zm11.51-8.048h-1.989l-8.14 17.735-.309.675h4.83l1.06-2.285h7.132l1.06 2.285h4.831l-.312-.675-8.163-17.735zm-3.049 12.152l2.041-4.777 2.093 4.777h-4.134zm23.964-11.896v6.594h-5.581v-6.594h-4.73V29.86h4.73v-7.296h5.581v7.296h4.728V11.683h-4.728zm8.185 9.096c0 12.593 18.552 12.593 18.552 0 0-12.568-18.552-12.568-18.552 0zm4.754 0c0-6.544 9.069-6.544 9.069 0a4.552 4.552 0 0 1-9.069 0zm23.593-1.753c-1.629-.182-2.972-.466-2.869-1.843.155-2.156 5.013-2.364 5.013.052h4.392c.103-7.843-13.952-7.843-13.797 0 .051 3.946 2.636 5.296 6.561 5.582 1.808.104 3.307.39 3.307 1.665 0 2.131-5.658 2.103-5.658-.208h-4.471c-.102 7.998 14.625 7.868 14.625.234.002-4.55-3.512-5.095-7.103-5.482zm8.715-7.343v4.154h4.441V29.86h4.573V15.837h4.418v-4.154h-13.432zm20.837 14.048v-3.194h6.149v-4.13h-6.149v-2.57h6.693v-4.154h-11.292V29.86h11.523v-4.13l-6.924.002zm22.667-2.311c4.573-3.116 3.281-11.71-3.825-11.737h-7.933V29.86h4.626v-5.35h2.404l3.101 5.35h5.581l-.414-.675-3.54-5.765zm-3.825-3.038h-3.307v-4.545c1.086 0 2.221-.025 3.307 0 2.636.026 2.506 4.545 0 4.545z" fill="#007AFF"/></svg>